<svg xmlns="http://www.w3.org/2000/svg" viewBox="0 0 1200 750" role="img" aria-label="Local business landing site preview" font-family="ui-sans-serif, system-ui, sans-serif">
  <rect width="1200" height="750" fill="#fbfaf6"/>
  <!-- browser window -->
  <rect x="120" y="90" width="960" height="570" rx="16" fill="#ffffff" stroke="#e7e3da"/>
  <rect x="120" y="90" width="960" height="48" rx="16" fill="#ffffff" stroke="#e7e3da"/>
  <circle cx="150" cy="114" r="5" fill="#e7e3da"/><circle cx="168" cy="114" r="5" fill="#e7e3da"/><circle cx="186" cy="114" r="5" fill="#e7e3da"/>
  <rect x="220" y="103" width="500" height="22" rx="11" fill="#fbfaf6" stroke="#e7e3da"/>
  <text x="240" y="119" font-size="12" fill="#6b6862" font-family="ui-monospace, monospace">yourshop.in</text>
  <!-- nav -->
  <text x="160" y="186" font-size="18" font-weight="800" fill="#16150f">Maple &amp; Co.</text>
  <g font-size="13" fill="#6b6862"><text x="720" y="186">Work</text><text x="790" y="186">About</text><text x="860" y="186">Contact</text></g>
  <rect x="930" y="170" width="120" height="32" rx="16" fill="#2b2bf5"/><text x="990" y="191" font-size="12" font-weight="700" fill="#fff" text-anchor="middle">WhatsApp</text>
  <line x1="160" y1="208" x2="1040" y2="208" stroke="#e7e3da"/>
  <!-- hero -->
  <text x="160" y="290" font-size="13" fill="#6b6862" font-family="ui-monospace, monospace">HANDMADE FURNITURE · PUNE</text>
  <text x="160" y="346" font-size="46" font-weight="700" fill="#16150f">Built by hand.</text>
  <rect x="370" y="384" width="118" height="16" fill="#ffb020" opacity="0.55"/>
  <text x="160" y="398" font-size="46" font-weight="700" fill="#16150f">Made to last.</text>
  <text x="160" y="440" font-size="16" fill="#6b6862">Custom tables, shelves, and seating for homes and cafés.</text>
  <rect x="160" y="470" width="180" height="50" rx="25" fill="#16150f"/><text x="250" y="501" font-size="15" font-weight="700" fill="#fff" text-anchor="middle">Get a quote</text>
  <rect x="352" y="470" width="150" height="50" rx="25" fill="none" stroke="#e7e3da"/><text x="427" y="501" font-size="15" font-weight="600" fill="#16150f" text-anchor="middle">See work</text>
  <!-- hero image -->
  <rect x="640" y="250" width="400" height="320" rx="14" fill="#f1ede4"/>
  <rect x="640" y="250" width="400" height="320" rx="14" fill="none" stroke="#e7e3da"/>
  <path d="M640 520 L760 410 L860 480 L960 380 L1040 450 V570 H640 Z" fill="#e3ddd0"/>
  <circle cx="960" cy="320" r="34" fill="#ffb020" opacity="0.7"/>
</svg>
