<svg xmlns="http://www.w3.org/2000/svg" viewBox="0 0 1200 750" role="img" aria-label="Van Lavino ordering screen" font-family="ui-sans-serif, system-ui, sans-serif">
  <rect width="1200" height="750" fill="#fbfaf6"/>
  <rect x="430" y="70" width="340" height="610" rx="40" fill="#ffffff" stroke="#16150f" stroke-width="2"/>
  <rect x="555" y="92" width="90" height="10" rx="5" fill="#e7e3da"/>
  <text x="470" y="150" font-size="13" fill="#6b6862" font-family="ui-monospace, monospace">VAN LAVINO</text>
  <text x="470" y="182" font-size="26" font-weight="700" fill="#16150f">Menu</text>
  <text x="730" y="178" font-size="13" fill="#6b6862" font-family="ui-monospace, monospace" text-anchor="end">Table 7</text>
  <rect x="470" y="200" width="260" height="1" fill="#e7e3da"/>
  <!-- items -->
  <g>
    <rect x="470" y="220" width="260" height="70" rx="12" fill="#fbfaf6" stroke="#e7e3da"/>
    <rect x="482" y="232" width="46" height="46" rx="8" fill="#ffe6bd"/>
    <text x="544" y="250" font-size="15" font-weight="700" fill="#16150f">Cold Brew</text>
    <text x="544" y="272" font-size="13" fill="#6b6862">Single origin</text>
    <text x="718" y="252" font-size="14" font-weight="700" fill="#16150f" text-anchor="end">₹220</text>
    <circle cx="710" cy="272" r="13" fill="#2b2bf5"/><text x="710" y="277" font-size="16" font-weight="700" fill="#fff" text-anchor="middle">+</text>
  </g>
  <g>
    <rect x="470" y="300" width="260" height="70" rx="12" fill="#fbfaf6" stroke="#e7e3da"/>
    <rect x="482" y="312" width="46" height="46" rx="8" fill="#efece4"/>
    <text x="544" y="330" font-size="15" font-weight="700" fill="#16150f">Croissant</text>
    <text x="544" y="352" font-size="13" fill="#6b6862">Butter, flaky</text>
    <text x="718" y="332" font-size="14" font-weight="700" fill="#16150f" text-anchor="end">₹210</text>
    <circle cx="710" cy="352" r="13" fill="#2b2bf5"/><text x="710" y="357" font-size="16" font-weight="700" fill="#fff" text-anchor="middle">+</text>
  </g>
  <g>
    <rect x="470" y="380" width="260" height="70" rx="12" fill="#fbfaf6" stroke="#e7e3da"/>
    <rect x="482" y="392" width="46" height="46" rx="8" fill="#efece4"/>
    <text x="544" y="410" font-size="15" font-weight="700" fill="#16150f">Pasta</text>
    <text x="544" y="432" font-size="13" fill="#6b6862">Arrabbiata</text>
    <text x="718" y="412" font-size="14" font-weight="700" fill="#16150f" text-anchor="end">₹320</text>
    <circle cx="710" cy="432" r="13" fill="#2b2bf5"/><text x="710" y="437" font-size="16" font-weight="700" fill="#fff" text-anchor="middle">+</text>
  </g>
  <!-- cart bar -->
  <rect x="470" y="540" width="260" height="100" rx="16" fill="#16150f"/>
  <text x="490" y="575" font-size="13" fill="#cfcdc6" font-family="ui-monospace, monospace">2 items</text>
  <text x="710" y="577" font-size="20" font-weight="700" fill="#fff" text-anchor="end">₹430</text>
  <rect x="490" y="592" width="220" height="34" rx="17" fill="#ffb020"/>
  <text x="600" y="614" font-size="14" font-weight="700" fill="#16150f" text-anchor="middle">Pay with Razorpay</text>
</svg>
